<svg width="120" height="121" viewBox="0 0 120 121" fill="none" xmlns="http://www.w3.org/2000/svg">
<g filter="url(#filter0_d)">
<path fill-rule="evenodd" clip-rule="evenodd" d="M81.73 98.4557C81.4894 100.869 77.7302 101.598 75.8114 102.123C74.5399 102.471 73.2378 102.726 71.9185 102.867C71.9147 105.164 68.6996 105.587 66.9851 105.814C58.7411 106.906 50.3787 104.806 42.9748 100.676C38.0757 97.9413 33.6081 94.2966 30.0073 89.9557C29.7801 90.2024 29.4976 90.4051 29.152 90.5409C27.1702 91.3211 25.3317 89.1947 24.2301 87.7758C19.121 81.188 16.3984 72.7263 15.7531 64.6489C15.1154 56.6691 16.4366 48.1863 20.3601 41.3499C19.7949 40.1012 19.3615 38.7741 19.121 37.4375L17.0781 36.8944L16.6753 34.2536C16.0968 30.4673 16.7936 26.7403 19.0274 23.7266C23.8062 17.2784 34.3394 15.6358 42.066 17.0317C42.7552 17.156 43.4521 17.2268 44.147 17.3243C52.8053 13.7733 62.5099 14.4425 71.5844 17.2765C73.8201 16.7793 76.0921 17.0643 78.3144 17.7565C81.184 16.3299 84.527 15.6396 87.7803 16.3854C94.0063 17.8139 96.9522 23.4665 98.0786 29.1995C100.626 31.5152 103.373 34.3473 103.466 37.8983C103.51 39.5562 102.838 41.4303 102.09 43.0136C102.243 43.2048 102.395 43.3961 102.544 43.5873C103.109 44.3063 103.633 45.0387 104.018 45.8686C104.518 46.9471 104.715 48.0792 104.539 49.2285C104.457 49.7581 104.287 50.1559 104.146 50.6493C103.999 51.1618 103.795 51.6398 103.568 52.1179C103.369 52.5367 103.155 52.9459 102.936 53.3532C102.896 53.4278 102.855 53.5024 102.813 53.5769C102.829 53.619 102.842 53.6592 102.857 53.7012C104.263 57.7629 104.018 63.4136 100.752 66.3241C100.301 67.6416 99.5965 68.8884 98.6896 69.9363C99.9688 76.7975 97.1622 85.9477 90.667 88.927C89.0728 89.6574 86.7875 90.3019 85.4091 88.6057C84.926 88.011 84.7294 87.2939 84.7122 86.5577C84.674 86.5634 84.6377 86.5691 84.6015 86.5749C83.9905 86.6743 83.3586 86.7967 82.7361 86.9478C83.727 88.4298 85.1761 89.47 86.7971 90.3956C87.9941 91.0782 88.796 92.2505 88.7349 93.6292C88.6834 94.7593 88.0304 95.7996 87.0243 96.2853C85.2697 97.1305 83.559 97.8916 81.73 98.4557Z" fill="white"/>
<path fill-rule="evenodd" clip-rule="evenodd" d="M20.9769 33.4231L23.4321 34.0752L23.3672 34.5647C23.182 35.9549 23.4436 37.3681 23.9476 38.699C24.4345 39.9822 25.1504 41.2137 25.9733 42.3247L26.254 42.7052L26.8458 43.7608C24.1328 46.4839 21.7368 49.7557 20.996 53.5248C20.1005 58.0855 20.1196 63.0249 20.8031 67.6889C21.6375 73.3855 23.6192 79.5831 27.0826 84.4097C27.4988 83.3732 27.915 82.3368 28.3312 81.2984L28.7531 80.2505L29.3087 81.2831C32.835 87.8403 38.5054 93.2405 44.9777 96.8528C48.1126 98.6025 51.4843 99.9602 54.9419 100.794C57.59 101.433 60.3202 101.771 63.0179 101.706C61.7769 100.907 60.6104 99.8856 59.6347 98.8855C57.947 97.1549 55.4039 93.9174 55.2626 91.4545L55.1347 89.2286L56.2669 91.1982C57.7943 93.8543 60.1903 95.998 62.9701 97.2543C66.0516 98.6484 69.3278 98.8664 72.5048 98.3137C70.2748 97.4494 68.1499 95.9272 67.4282 93.6249L67.0043 92.271L68.2148 93.0321C69.1732 93.6344 70.3455 93.9213 71.4452 93.9825C72.5105 94.0417 73.6484 93.8964 74.6202 93.4987C75.277 93.2309 75.9471 92.8045 76.327 92.1888C74.8168 92.0702 73.4136 91.4927 72.2318 90.4237C71.1473 89.4428 70.3645 88.1596 69.8433 86.8153C69.0816 84.8533 68.7283 82.2794 69.2496 80.2754C69.4768 79.4034 70.0973 78.6404 71.0767 78.6653C71.3917 78.6729 71.6991 78.7685 71.974 78.933C72.4819 79.2389 72.8733 79.6635 73.089 80.218C73.4594 81.1761 73.2036 82.2622 72.8465 83.1495C72.6155 83.7232 72.3215 84.272 71.995 84.7979C73.173 84.9585 74.2842 84.9164 75.4717 84.6449C76.3499 84.4441 77.2015 84.1401 78.0434 83.8341C79.0572 83.465 80.0615 83.0979 81.1001 82.79C82.3697 82.4133 83.7081 82.1551 85.0445 82.0748C85.3366 82.0576 85.6307 82.0442 85.9228 82.0404C86.9919 82.0232 88.5537 82.0959 89.3078 83.029C89.619 83.4134 89.7278 83.8551 89.7202 84.3007C93.636 81.5834 95.213 75.0033 94.3539 70.4923C94.3081 70.2532 94.2088 70.0161 94.0904 69.8C93.9243 69.5036 93.6952 69.2091 93.4394 68.9835C93.3706 68.9242 93.1931 68.7846 93.0652 68.7311C92.8876 69.3851 92.7501 69.9951 92.4714 70.6223C92.0991 71.4656 91.5473 72.1923 90.7054 72.6053L90.5106 72.7009L90.2987 72.6302C88.2291 71.9322 87.265 69.7121 87.0148 67.7271L86.9518 67.2319L87.4387 67.1516C87.8874 67.077 88.3418 66.9393 88.7675 66.7959C89.2964 66.6161 89.8176 66.4096 90.3292 66.1935C91.1139 65.8627 91.8872 65.5013 92.6528 65.1322C92.943 64.9926 93.2313 64.8511 93.5196 64.7096C93.699 64.6216 93.8804 64.5318 94.0637 64.4534L94.3157 64.3463L94.5601 64.4954C95.2646 64.9257 95.1328 66.0558 95.0565 66.727C95.0431 66.8379 95.0087 67.0693 94.9801 67.3103C95.9271 66.3809 96.5991 65.0557 96.8244 63.7764L96.8683 63.5221L97.0955 63.4073C99.7054 62.1032 99.545 57.3971 98.7031 54.9609C98.5217 54.4388 98.3041 53.9015 98.0368 53.412L97.8859 53.1366L98.0406 52.8784C98.3842 52.299 98.7184 51.712 99.0391 51.1192C99.2243 50.775 99.4057 50.4288 99.5737 50.0751C99.6978 49.815 99.8276 49.5377 99.9078 49.2585C99.9918 48.966 100.143 48.6543 100.188 48.3579C100.232 48.0768 100.164 47.8243 100.041 47.5643C99.8219 47.09 99.4591 46.6196 99.1365 46.2066C98.6916 45.6405 98.2334 45.0822 97.8191 44.4932C97.548 44.1088 97.2979 43.7072 97.1127 43.2751L97.0039 43.0227L97.1375 42.7932C97.8038 41.6497 99.104 39.1389 99.0697 37.8041C99.0124 35.5878 95.7228 32.859 94.163 31.4554L94.0083 31.3158L93.9797 31.1131C93.3821 26.975 91.6886 21.7545 86.9977 20.6779C84.2789 20.0545 81.3674 21.0317 79.1489 22.4448L78.9217 22.5883L78.662 22.485C76.495 21.6149 74.1257 20.9896 71.9187 21.8272L71.7411 21.8941L71.5559 21.8329C62.8308 18.9129 53.3305 18.0428 45.0464 21.8234L44.8879 21.896L44.7123 21.8578C44.5385 21.8214 44.3438 21.7985 44.1682 21.7717C43.8226 21.7201 43.477 21.6685 43.1315 21.6168C42.7821 21.5652 42.4346 21.5136 42.0852 21.4619C41.8905 21.4333 41.69 21.4065 41.4953 21.3721C38.5321 20.8252 35.2846 20.8634 32.3749 21.3606C28.7703 21.9782 24.822 23.4698 22.6093 26.4548C21.899 27.4129 21.4007 28.4876 21.1277 29.6636C20.8432 30.8894 20.8203 32.1591 20.9769 33.4231Z" fill="#D2AB67"/>
<path fill-rule="evenodd" clip-rule="evenodd" d="M84.5958 38.1316C84.5958 38.1316 85.3614 37.0607 83.3987 35.0299C81.436 32.999 76.0329 26.1608 75.8057 25.0746C75.5785 23.9885 81.6594 25.9868 81.9439 26.0556C82.2264 26.1264 91.3449 33.0335 91.3449 33.0335L94.4989 36.7853L94.3824 39.4854L88.8724 40.6423L85.0807 40.3976C85.0807 40.3957 84.6817 40.1165 84.5958 38.1316ZM29.4919 65.3258L31.4966 62.9928C34.2 72.6153 37.7168 79.3484 41.8694 84.0698C41.0369 80.0617 41.8235 77.1474 46.7971 72.8983C46.7971 72.8983 40.7773 84.7658 50.5009 93.1989C60.2246 101.632 50.6079 96.9507 50.6079 96.9507L45.8902 93.9408L45.5522 93.7248C45.5522 93.7248 45.3766 93.4953 45.1036 93.0803L37.3121 89.4298C37.3121 89.4298 29.2685 76.0937 28.8657 76.1071C29.5816 82.1116 24.2988 74.6156 24.2988 74.6156L21.4579 60.591C21.4579 60.591 20.6408 47.8994 28.5793 45.9737L37.7875 49.2666L29.9005 51.1942C29.2112 53.5922 27.7144 58.8356 29.4919 65.3258ZM46.3828 42.2888C46.3828 42.2888 48.7998 34.3663 59.1612 35.7852C66.588 41.6922 72.9553 43.0958 72.9553 43.0958L73.6941 47.2989L61.3491 55.122L63.1018 50.7735C56.5684 53.2996 54.9284 44.4401 49.5349 46.7903C49.7583 44.5797 50.2547 41.5449 53.6111 40.323C53.6092 40.323 50.2508 39.7474 46.3828 42.2888ZM75.6835 78.05C75.6835 78.05 75.4334 73.9692 69.1521 73.2942C62.8708 72.6192 58.5884 76.7554 58.3784 80.402C58.1684 84.0487 61.2498 90.6747 61.7195 90.9558C62.1873 91.2369 66.3799 91.061 66.5689 90.6059C66.7579 90.1507 66.6205 84.3642 66.8439 82.4711C67.0691 80.578 69.5378 75.8451 70.7921 76.4762C72.0465 77.1053 74.8435 77.7364 75.6835 78.05ZM93.0097 57.2255C93.0097 57.2255 97.1584 57.3268 97.2997 55.4375C97.441 53.5482 97.3436 53.0453 96.4864 50.9953C96.6372 51.0775 96.7804 51.0814 96.9122 50.9838C97.6224 50.458 98.9245 46.9509 98.9245 46.9509C98.9245 46.9509 96.8663 45.6544 95.9518 45.5492C95.9518 45.5492 93.9624 45.6888 94.5333 47.3716C94.6001 47.5705 94.6745 47.7789 94.7547 47.9931C93.2216 46.1076 91.8852 44.3368 90.1631 43.8301C88.4409 43.3233 86.589 41.5736 84.3075 42.8835C90.984 44.3942 94.5505 54.315 93.0097 57.2255ZM98.1436 56.9807L95.2588 57.4014L93.4679 62.4153L94.1266 63.7482C94.1266 63.7482 97.4296 64.0293 98.0042 62.1361C98.5808 60.2411 98.7221 57.367 98.1436 56.9807Z" fill="#A87D2C"/>
<path fill-rule="evenodd" clip-rule="evenodd" d="M90.3827 50.9986C89.5426 48.1244 88.5651 47.0497 87.2267 45.1853C86.3237 43.927 82.6312 43.8161 84.529 45.2121C85.6688 46.0515 87.9923 47.9485 90.3827 50.9986ZM78.0548 85.7558C78.7842 88.4234 81.0313 91.4237 84.2312 93.271C79.5898 95.5867 72.9725 96.8794 68.0811 93.8657C69.0395 96.2178 71.7678 97.7686 74.6278 98.392C65.2497 100.96 58.6514 96.4032 55.801 91.4447C55.9766 94.5254 60.847 100.39 64.929 102.134C51.973 103.354 36.0558 94.9461 28.8352 81.5201C28.1631 83.1914 27.9092 83.8263 27.2372 85.4995C18.2123 73.8596 16.9675 54.7867 23.9266 43.0589L26.2501 43.5102C24.1729 41.334 22.4297 37.4598 22.8307 34.469L20.4938 33.8475C18.6934 22.0527 33.0068 19.2742 41.5601 20.8308C41.7988 20.8747 44.569 21.2706 44.7981 21.3203C52.8073 17.6679 62.2255 18.1421 71.701 21.3126C74.3204 20.3183 77.1021 21.2801 78.8376 21.9781C84.4431 18.4117 92.6871 18.4423 94.5085 31.0556C96.139 32.5223 99.5393 35.3257 99.6042 37.8097C99.6405 39.2363 98.3842 41.7337 97.6014 43.0761C97.7713 43.47 98.0043 43.841 98.2505 44.1909C98.6572 44.7684 99.1135 45.3249 99.5507 45.8794C99.8982 46.3212 100.29 46.8394 100.526 47.35C100.694 47.7133 100.778 48.069 100.719 48.4591C100.668 48.7918 100.517 49.1016 100.425 49.4229C100.339 49.725 100.196 50.0367 100.062 50.3197C99.8906 50.6811 99.7054 51.0368 99.5145 51.3887C99.1918 51.9872 98.8539 52.5819 98.5064 53.1671C98.787 53.6815 99.0314 54.2838 99.2109 54.802C100.165 57.5633 100.209 62.4626 97.3532 63.8891C97.0821 65.4246 96.1561 67.2413 94.6555 68.2911C93.8918 68.6449 95.0755 65.4266 94.2927 64.9504C93.615 65.2411 89.6801 67.3312 87.5475 67.683C87.7804 69.5226 88.6491 71.5114 90.4457 72.1156C91.9597 71.3756 92.2995 69.4346 92.5515 68.5168C92.8379 67.4688 94.6059 68.9719 94.8808 70.4137C95.8736 75.6285 93.7658 83.136 88.9068 85.4001C90.8791 80.5544 81.3043 83.1494 79.3264 83.8894C76.1246 85.0865 73.0851 86.8171 71.6055 86.8515C73.0718 87.7522 76.2487 86.7349 78.0548 85.7558ZM95.2034 46.9675C95.2034 46.9675 95.8392 47.6904 96.244 48.2793C96.6487 48.8664 96.7976 49.1532 96.7976 49.1532C96.7976 49.1532 97.4105 48.113 97.3188 47.7821C97.2272 47.4513 96.5628 46.4397 96.3337 46.3652C96.1046 46.2887 95.4077 46.8012 95.2034 46.9675ZM28.5812 45.9731L33.1767 48.2602L27.3326 48.2946C24.2569 58.8503 25.494 65.4552 28.0161 72.0965L29.9883 69.427C35.1089 82.3022 41.4322 89.7237 50.5029 93.1983C46.7856 86.2644 47.03 78.1526 51.1959 73.9132C49.9912 77.9385 51.5644 82.8377 54.5714 85.1305C52.9505 77.0397 59.8008 73.3586 65.0989 73.0278C66.4792 72.9417 67.8596 73.0316 69.1521 73.2917C67.6973 73.2477 66.1088 73.4351 64.7247 73.9992C58.3021 76.6209 60.9883 88.6223 65.3394 90.2209C60.9406 81.9791 67.0921 71.7963 73.5892 75.1925C73.9787 75.4946 74.328 75.8273 74.6297 76.1887C75.7218 77.4355 76.2392 79.1528 75.7676 81.415C80.5597 79.0418 81.0046 79.0629 85.4206 78.7416C89.1436 78.4701 90.7187 80.1815 90.7187 80.1815C92.3377 78.1813 93.7505 73.481 93.4718 70.8841C91.4652 78.1507 83.2403 76.6726 83.2708 76.5004C83.6317 74.4696 82.2456 71.8173 81.6213 71.2054C81.5602 71.1442 81.7034 74.3836 77.0544 77.0569C77.4572 76.2232 78.0663 75.7547 78.0377 74.3281C76.0024 74.4524 67.9742 69.7674 68.6061 66.8531L66.8668 67.574L66.0917 64.6521C63.0656 64.9619 55.5471 66.3521 52.0856 70.2952C53.7027 62.2273 62.3439 59.009 63.7433 59.0511C62.0155 59.7969 61.1716 61.4586 60.8967 62.4664C66.0688 60.8371 72.9763 62.1183 77.358 63.4034C79.7617 64.109 81.2986 64.3289 81.7377 67.1935C81.8332 67.8131 81.8217 68.1917 82.0928 68.0865C83.2823 67.6295 84.0021 66.2603 84.5214 65.1512C86.7914 65.2372 90.6633 65.3309 91.2323 62.3459C91.6408 60.1946 87.5398 58.3914 85.5848 58.5883C84.3381 58.7145 84.4927 55.0009 85.2297 55.1577C90.1326 56.2076 96.0378 55.8423 96.244 54.1461C95.8201 53.3392 94.8464 51.5627 93.5291 49.6294C87.2916 40.4792 83.0856 42.8868 75.38 46.499C70.8437 48.6254 65.7289 51.1821 64.444 51.97L66.5289 48.264C60.5817 50.4497 56.1045 40.005 51.1864 44.864C51.5377 42.1199 53.6264 40.5003 57.0782 39.764C54.5008 38.523 52.0016 38.0354 49.1264 39.3051C50.3139 37.0888 55.4535 34.5818 60.9559 36.169C66.4582 37.7581 68.0123 41.4373 75.296 41.8962C82.5816 42.3551 84.5901 38.1329 84.5901 38.1329C84.5901 38.1329 85.2488 39.5958 87.7021 39.5116C88.8114 39.4734 91.6714 38.6568 93.193 37.7122C92.7253 34.2147 80.9187 27.5428 77.3809 26.6957C82.826 32.6963 83.393 35.0312 83.393 35.0312C74.4311 24.9861 62.7486 23.0509 51.3983 24.3933L54.14 28.0801C48.082 25.5808 29.4557 22.4887 26.4047 29.2485L28.9535 29.2906C24.1499 36.7312 32.2508 44.9042 38.1331 47.5603C35.3093 46.7859 31.7372 46.3154 28.5812 45.9731ZM97.2119 57.8119C97.2788 58.8866 97.1909 60.0149 96.5895 61.124C95.108 63.8566 92.9086 63.1624 97.2119 57.8119Z" fill="#27002B"/>
<path fill-rule="evenodd" clip-rule="evenodd" d="M33.1499 54.2939C37.5812 59.9409 43.5475 59.327 52.3662 56.4777C48.6299 61.5663 46.6729 63.7921 41.3195 65.605C42.6769 65.7732 44.9183 65.6184 46.4514 65.1365C43.4482 67.5746 38.9845 70.7375 39.647 77.1837C38.8833 74.4779 37.5984 72.4681 40.2465 67.9781C37.8981 67.4847 35.9584 66.1939 35.798 63.9069C38.4193 63.5168 40.3687 62.9584 41.9915 62.1935C37.5106 62.3312 34.1828 58.0726 33.1499 54.2939Z" fill="#27002B"/>
<path fill-rule="evenodd" clip-rule="evenodd" d="M71.4491 44.6957C71.4491 44.6957 70.3876 43.4412 68.7113 42.8561C67.035 42.2709 65.6508 42.1237 64.0318 42.334C62.4147 42.5425 61.5288 43.2538 61.5288 43.2538C61.5288 43.2538 62.8958 46.5353 66.9644 46.4932C71.0329 46.4511 71.4491 44.6957 71.4491 44.6957Z" fill="white"/>
<path fill-rule="evenodd" clip-rule="evenodd" d="M90.9839 44.3939C91.402 41.688 95.0925 41.4758 95.9001 42.0112C95.9001 42.0112 95.0066 46.0461 90.9839 44.3939Z" fill="white"/>
<path fill-rule="evenodd" clip-rule="evenodd" d="M55.4475 31.737C45.6533 26.9276 26.5993 27.7021 34.6447 39.2196C36.7811 42.2773 42.9937 47.079 42.9937 47.079L38.5968 40.6825L43.7899 37.5464L41.3079 37.1276C41.3079 37.1276 46.3348 34.1541 51.9613 32.6051L50.3041 31.0581C51.5814 31.1308 53.9736 31.5649 55.4475 31.737Z" fill="#27002B"/>
<path fill-rule="evenodd" clip-rule="evenodd" d="M69.5205 65.0098C71.9815 65.746 73.9843 66.3464 75.8343 67.49L75.1126 66.3063C75.7465 66.4057 77.1593 66.7863 79.2308 67.6276C79.3664 68.972 79.3282 70.0046 78.9788 71.3145C75.4983 69.7445 71.9299 67.4594 69.5205 65.0098ZM83.433 69.7541C85.5503 70.9129 87.0433 72.2209 86.209 73.3262C85.9627 73.6513 84.9604 73.6532 84.9432 73.5786C84.611 72.0583 84.0458 70.7829 83.433 69.7541Z" fill="#8C0B0E"/>
<path fill-rule="evenodd" clip-rule="evenodd" d="M60.4023 33.1172C65.689 35.0027 73.5473 40.9708 78.7537 39.1484C79.8554 38.7622 78.9943 37.5708 78.9943 37.5708C79.6835 40.0682 66.5271 32.7328 60.4023 33.1172Z" fill="#A87D2C"/>
</g>
<defs>
<filter id="filter0_d" x="-4" y="0.5" width="128" height="128" filterUnits="userSpaceOnUse" color-interpolation-filters="sRGB">
<feFlood flood-opacity="0" result="BackgroundImageFix"/>
<feColorMatrix in="SourceAlpha" type="matrix" values="0 0 0 0 0 0 0 0 0 0 0 0 0 0 0 0 0 0 127 0"/>
<feOffset dy="4"/>
<feGaussianBlur stdDeviation="2"/>
<feColorMatrix type="matrix" values="0 0 0 0 0 0 0 0 0 0 0 0 0 0 0 0 0 0 0.25 0"/>
<feBlend mode="normal" in2="BackgroundImageFix" result="effect1_dropShadow"/>
<feBlend mode="normal" in="SourceGraphic" in2="effect1_dropShadow" result="shape"/>
</filter>
</defs>
</svg>
