<svg width="14" height="14" viewBox="0 0 14 14" fill="none" xmlns="http://www.w3.org/2000/svg">
<path d="M4.603 4.91201C5.81264 4.91201 6.81219 3.91246 6.81219 2.70919C6.81219 1.50591 5.80628 0.5 4.603 0.5C3.39973 0.5 2.39382 1.50591 2.39382 2.70919C2.39382 3.91246 3.39973 4.91201 4.603 4.91201ZM9.397 4.91201C10.6003 4.91201 11.6062 3.91246 11.6062 2.70919C11.6062 1.50591 10.6003 0.5 9.397 0.5C8.19373 0.5 7.18781 1.50591 7.18781 2.70919C7.18781 3.91246 8.19373 4.91201 9.397 4.91201ZM4.603 3.7151C4.05548 3.7151 3.59072 3.25034 3.59072 2.70919C3.59072 2.1553 4.05548 1.69054 4.603 1.69054C5.15052 1.69054 5.62165 2.16166 5.62165 2.70919C5.62165 3.25034 5.15052 3.7151 4.603 3.7151ZM2.20919 9.20941C3.41246 9.20941 4.41837 8.2035 4.41837 7.00023C4.41837 5.79695 3.41246 4.79104 2.20919 4.79104C1.00591 4.79104 0 5.79695 0 7.00023C0 8.2035 1.00591 9.20941 2.20919 9.20941ZM11.7908 9.20941C13.0005 9.20941 14 8.2035 14 7.00023C14 5.79695 13.0005 4.79104 11.7908 4.79104C10.5875 4.79104 9.58163 5.79695 9.58163 7.00023C9.58163 8.2035 10.5875 9.20941 11.7908 9.20941ZM2.20919 8.01251C1.66166 8.01251 1.19691 7.54775 1.19691 7.00023C1.19691 6.45271 1.66166 5.98795 2.20919 5.98795C2.75671 5.98795 3.22146 6.45271 3.22146 7.00023C3.22146 7.54775 2.75671 8.01251 2.20919 8.01251ZM11.7908 8.01251C11.2433 8.01251 10.7785 7.54775 10.7785 7.00023C10.7785 6.45271 11.2433 5.98795 11.7908 5.98795C12.3383 5.98795 12.8095 6.45271 12.8095 7.00023C12.8095 7.54775 12.3383 8.01251 11.7908 8.01251ZM4.603 13.5005C5.80628 13.5005 6.81219 12.4945 6.81219 11.2913C6.81219 10.088 5.81264 9.08845 4.603 9.08845C3.39973 9.08845 2.39382 10.088 2.39382 11.2913C2.39382 12.4945 3.39973 13.5005 4.603 13.5005ZM9.397 13.5005C10.6003 13.5005 11.6062 12.4945 11.6062 11.2913C11.6062 10.088 10.6003 9.08845 9.397 9.08845C8.19373 9.08845 7.18781 10.088 7.18781 11.2913C7.18781 12.4945 8.19373 13.5005 9.397 13.5005ZM4.603 12.3035C4.05548 12.3035 3.59072 11.8388 3.59072 11.2913C3.59072 10.7437 4.05548 10.2854 4.603 10.2854C5.15052 10.2854 5.62165 10.7437 5.62165 11.2913C5.62165 11.8388 5.15052 12.3035 4.603 12.3035ZM9.397 12.3035C8.84948 12.3035 8.38472 11.8388 8.38472 11.2913C8.38472 10.7437 8.84948 10.2854 9.397 10.2854C9.94452 10.2854 10.4093 10.7437 10.4093 11.2913C10.4093 11.8388 9.94452 12.3035 9.397 12.3035Z" fill="#323232"/>
</svg>