<svg width="17" height="16" viewBox="0 0 17 16" fill="none" xmlns="http://www.w3.org/2000/svg">
<g opacity="0.25">
<path d="M3.76228 14H13.2308C14.723 14 15.5 13.221 15.5 11.7325V3.26752C15.5 1.77903 14.723 1 13.2308 1H3.76228C2.27701 1 1.5 1.77207 1.5 3.26752V11.7325C1.5 13.221 2.27701 14 3.76228 14ZM3.7554 12.6158C3.18468 12.6158 2.86837 12.3167 2.86837 11.7047V5.30551C2.86837 4.69342 3.18468 4.39433 3.7554 4.39433H13.2377C13.8084 4.39433 14.1248 4.69342 14.1248 5.30551V11.7047C14.1248 12.3167 13.8084 12.6158 13.2377 12.6158H3.7554Z" fill="#323232"/>
<path d="M7.17278 6.79358H7.57848C7.82603 6.79358 7.90854 6.71707 7.90854 6.47362V6.06324C7.90854 5.81284 7.82603 5.73633 7.57848 5.73633H7.17278C6.92524 5.73633 6.84272 5.81284 6.84272 6.06324V6.47362C6.84272 6.71707 6.92524 6.79358 7.17278 6.79358ZM9.42131 6.79358H9.82701C10.0677 6.79358 10.1502 6.71707 10.1502 6.47362V6.06324C10.1502 5.81284 10.0677 5.73633 9.82701 5.73633H9.42131C9.17377 5.73633 9.09125 5.81284 9.09125 6.06324V6.47362C9.09125 6.71707 9.17377 6.79358 9.42131 6.79358ZM11.663 6.79358H12.0687C12.3162 6.79358 12.3987 6.71707 12.3987 6.47362V6.06324C12.3987 5.81284 12.3162 5.73633 12.0687 5.73633H11.663C11.4223 5.73633 11.3398 5.81284 11.3398 6.06324V6.47362C11.3398 6.71707 11.4223 6.79358 11.663 6.79358ZM4.93113 9.03328H5.32995C5.5775 9.03328 5.66001 8.95677 5.66001 8.70637V8.29599C5.66001 8.05254 5.5775 7.97603 5.32995 7.97603H4.93113C4.68359 7.97603 4.60107 8.05254 4.60107 8.29599V8.70637C4.60107 8.95677 4.68359 9.03328 4.93113 9.03328ZM7.17278 9.03328H7.57848C7.82603 9.03328 7.90854 8.95677 7.90854 8.70637V8.29599C7.90854 8.05254 7.82603 7.97603 7.57848 7.97603H7.17278C6.92524 7.97603 6.84272 8.05254 6.84272 8.29599V8.70637C6.84272 8.95677 6.92524 9.03328 7.17278 9.03328ZM9.42131 9.03328H9.82701C10.0677 9.03328 10.1502 8.95677 10.1502 8.70637V8.29599C10.1502 8.05254 10.0677 7.97603 9.82701 7.97603H9.42131C9.17377 7.97603 9.09125 8.05254 9.09125 8.29599V8.70637C9.09125 8.95677 9.17377 9.03328 9.42131 9.03328ZM11.663 9.03328H12.0687C12.3162 9.03328 12.3987 8.95677 12.3987 8.70637V8.29599C12.3987 8.05254 12.3162 7.97603 12.0687 7.97603H11.663C11.4223 7.97603 11.3398 8.05254 11.3398 8.29599V8.70637C11.3398 8.95677 11.4223 9.03328 11.663 9.03328ZM4.93113 11.266H5.32995C5.5775 11.266 5.66001 11.1895 5.66001 10.9461V10.5357C5.66001 10.2853 5.5775 10.2088 5.32995 10.2088H4.93113C4.68359 10.2088 4.60107 10.2853 4.60107 10.5357V10.9461C4.60107 11.1895 4.68359 11.266 4.93113 11.266ZM7.17278 11.266H7.57848C7.82603 11.266 7.90854 11.1895 7.90854 10.9461V10.5357C7.90854 10.2853 7.82603 10.2088 7.57848 10.2088H7.17278C6.92524 10.2088 6.84272 10.2853 6.84272 10.5357V10.9461C6.84272 11.1895 6.92524 11.266 7.17278 11.266ZM9.42131 11.266H9.82701C10.0677 11.266 10.1502 11.1895 10.1502 10.9461V10.5357C10.1502 10.2853 10.0677 10.2088 9.82701 10.2088H9.42131C9.17377 10.2088 9.09125 10.2853 9.09125 10.5357V10.9461C9.09125 11.1895 9.17377 11.266 9.42131 11.266Z" fill="#323232"/>
</g>
</svg>
