<svg width="10" height="9" viewBox="0 0 10 9" fill="none" xmlns="http://www.w3.org/2000/svg">
<path d="M4.00371 8.22486C3.65197 8.22486 3.37057 8.0529 3.13607 7.77932L0.8849 5.11387C0.705119 4.90282 0.626953 4.69177 0.626953 4.45728C0.626953 3.95702 1.03341 3.56619 1.52586 3.56619C1.80726 3.56619 2.03394 3.69125 2.24498 3.92575L3.98808 6.03622L7.32576 0.744405C7.54462 0.408292 7.80257 0.236328 8.12305 0.236328C8.59986 0.236328 9.0454 0.588074 9.0454 1.08833C9.0454 1.28375 8.95942 1.50261 8.82654 1.70584L4.87135 7.74024C4.6603 8.04508 4.34764 8.22486 4.00371 8.22486Z" fill="white"/>
</svg>
