<svg width="17" height="16" viewBox="0 0 17 16" fill="none" xmlns="http://www.w3.org/2000/svg">
<path fill-rule="evenodd" clip-rule="evenodd" d="M8.5 16C12.9183 16 16.5 12.4183 16.5 8C16.5 3.58172 12.9183 0 8.5 0C4.08172 0 0.5 3.58172 0.5 8C0.5 12.4183 4.08172 16 8.5 16ZM6.95755 12.3775C6.87276 12.9986 7.49711 13.2973 7.91335 12.7627L11.9292 7.59762C12.3301 7.07875 12.1682 6.57561 11.5824 6.57561H9.61682L10.0408 3.65894C10.1178 3.03787 9.4935 2.74699 9.07726 3.27372L5.06137 8.43882C4.64514 8.95769 4.82242 9.46083 5.40053 9.46083H7.36608L6.95755 12.3775Z" fill="#813BC4"/>
</svg>
