<svg width="18" height="18" viewBox="0 0 18 18" fill="none" xmlns="http://www.w3.org/2000/svg">
<path opacity="0.2" d="M8.99619 16.875C13.3124 16.875 16.875 13.3107 16.875 9C16.875 4.68931 13.3048 1.125 8.98858 1.125C4.67998 1.125 1.125 4.68931 1.125 9C1.125 13.3107 4.68759 16.875 8.99619 16.875Z" fill="#323232"/>
<path d="M8.81345 10.5693C8.31864 10.5693 8.0446 10.3408 8.0446 9.88383V9.80006C8.0446 9.08415 8.45567 8.6805 9.01898 8.28446C9.68887 7.81988 10.0162 7.56855 10.0162 7.08112C10.0162 6.55562 9.61275 6.20528 8.98853 6.20528C8.53179 6.20528 8.19685 6.43376 7.94564 6.82218C7.70204 7.09636 7.58786 7.33245 7.13111 7.33245C6.75811 7.33245 6.45361 7.08874 6.45361 6.70794C6.45361 6.55562 6.48406 6.41853 6.53735 6.28144C6.78856 5.53507 7.70204 4.92578 9.06466 4.92578C10.4806 4.92578 11.6757 5.67977 11.6757 7.00496C11.6757 7.91889 11.1733 8.37585 10.3816 8.88613C9.87918 9.21362 9.58991 9.4878 9.56707 9.89906C9.56707 9.92191 9.55946 9.95999 9.55946 9.99046C9.53662 10.3179 9.25497 10.5693 8.81345 10.5693ZM8.80584 13.0064C8.2882 13.0064 7.8619 12.6332 7.8619 12.1306C7.8619 11.6279 8.28058 11.2547 8.80584 11.2547C9.32348 11.2547 9.74216 11.6279 9.74216 12.1306C9.74216 12.6408 9.31587 13.0064 8.80584 13.0064Z" fill="#323232"/>
</svg>
