<svg width="19" height="19" viewBox="0 0 19 19" fill="none" xmlns="http://www.w3.org/2000/svg">
<path fill-rule="evenodd" clip-rule="evenodd" d="M9.5 18.5C14.4706 18.5 18.5 14.4706 18.5 9.5C18.5 4.52944 14.4706 0.5 9.5 0.5C4.52944 0.5 0.5 4.52944 0.5 9.5C0.5 14.4706 4.52944 18.5 9.5 18.5ZM7.76474 14.4247C7.66936 15.1234 8.37175 15.4595 8.84002 14.8581L13.3579 9.04733C13.8088 8.4636 13.6267 7.89756 12.9677 7.89756H10.7564L11.2334 4.61631C11.3201 3.91761 10.6177 3.59037 10.1494 4.18294L5.63154 9.99367C5.16328 10.5774 5.36273 11.1434 6.01309 11.1434H8.22434L7.76474 14.4247Z" fill="white"/>
</svg>
