<svg width="24" height="24" viewBox="0 0 24 24" fill="none" xmlns="http://www.w3.org/2000/svg">
<path d="M3 12C3.00956 11.4815 3.18169 11.0707 3.5929 10.6598L10.7937 3.45978C11.0997 3.15652 11.4536 3 11.8934 3C12.7732 3 13.5 3.7337 13.5 4.62391C13.5 5.07391 13.3183 5.48478 12.9836 5.82717L6.74863 11.9902L12.9836 18.1728C13.3183 18.5054 13.5 18.9163 13.5 19.3761C13.5 20.2663 12.7732 21 11.8934 21C11.4631 21 11.0997 20.8533 10.7937 20.5402L3.5929 13.3402C3.18169 12.9293 3 12.5087 3 12Z" fill="white"/>
</svg>
