<svg width="17" height="17" viewBox="0 0 17 17" fill="none" xmlns="http://www.w3.org/2000/svg">
<path d="M8.49613 16.5C12.8809 16.5 16.5 12.8809 16.5 8.50387C16.5 4.11914 12.8731 0.5 8.4884 0.5C4.11141 0.5 0.5 4.11914 0.5 8.50387C0.5 12.8809 4.11914 16.5 8.49613 16.5ZM8.49613 14.8992C4.94659 14.8992 2.10851 12.0457 2.10851 8.50387C2.10851 4.95433 4.94659 2.10077 8.4884 2.10077C12.0379 2.10077 14.8915 4.95433 14.8992 8.50387C14.907 12.0457 12.0457 14.8992 8.49613 14.8992ZM5.44925 12.4323C5.58072 12.4323 5.71991 12.3705 5.82818 12.2622L8.31054 9.78758C8.38014 9.71025 8.442 9.67931 8.50387 9.67931C8.558 9.67931 8.61986 9.71025 8.68946 9.78758L11.1718 12.2622C11.2724 12.3705 11.427 12.4323 11.5585 12.4323C11.8214 12.4323 12.0147 12.2467 12.0147 11.9606C12.0147 11.8523 11.9915 11.7363 11.9451 11.6203L9.11479 4.413C8.98333 4.07274 8.77453 3.91808 8.50387 3.91808C8.22547 3.91808 8.01667 4.07274 7.88521 4.413L5.06259 11.6203C5.01619 11.7363 4.98526 11.8523 4.98526 11.9606C4.98526 12.2467 5.17086 12.4323 5.44925 12.4323Z" fill="white"/>
</svg>
