<svg width="24" height="24" viewBox="0 0 24 24" fill="none" xmlns="http://www.w3.org/2000/svg">
<path fill-rule="evenodd" clip-rule="evenodd" d="M12 20C16.4183 20 20 16.4183 20 12C20 7.58172 16.4183 4 12 4C7.58172 4 4 7.58172 4 12C4 16.4183 7.58172 20 12 20ZM22 12C22 17.5228 17.5228 22 12 22C6.47715 22 2 17.5228 2 12C2 6.47715 6.47715 2 12 2C17.5228 2 22 6.47715 22 12Z" fill="black"/>
<path fill-rule="evenodd" clip-rule="evenodd" d="M8.79692 13.3959C8.46474 12.9577 7.84049 12.8697 7.40006 13.2001C6.95823 13.5314 6.86869 14.1582 7.20006 14.6001L8.00006 14.0001C7.20006 14.6001 7.2003 14.6004 7.20055 14.6007L7.20107 14.6014L7.20222 14.6029L7.20496 14.6066L7.21217 14.616L7.23347 14.6432C7.25071 14.665 7.27407 14.6939 7.30342 14.7289C7.36207 14.7987 7.44506 14.8934 7.55151 15.0045C7.76358 15.2258 8.07349 15.5172 8.47439 15.8088C9.27233 16.3891 10.4745 17.0001 12.0001 17.0001C13.5256 17.0001 14.7278 16.3891 15.5257 15.8088C15.9266 15.5172 16.2365 15.2258 16.4486 15.0045C16.5551 14.8934 16.6381 14.7987 16.6967 14.7289C16.7261 14.6939 16.7494 14.665 16.7666 14.6432L16.7879 14.616L16.7952 14.6066L16.7979 14.6029L16.799 14.6014L16.7996 14.6007C16.7998 14.6004 16.8001 14.6001 16.0001 14.0001L16.8001 14.6001C17.1314 14.1582 17.0419 13.5314 16.6001 13.2001C16.1596 12.8697 15.5354 12.9577 15.2032 13.3959L15.1986 13.4018C15.1926 13.4093 15.1813 13.4234 15.1647 13.4431C15.1316 13.4826 15.0779 13.5442 15.0046 13.6207C14.8573 13.7744 14.636 13.9829 14.3494 14.1913C13.7723 14.611 12.9745 15.0001 12.0001 15.0001C11.0256 15.0001 10.2278 14.611 9.65073 14.1913C9.36413 13.9829 9.14278 13.7744 8.99548 13.6207C8.92225 13.5442 8.86852 13.4826 8.83537 13.4431C8.81883 13.4234 8.80751 13.4093 8.80156 13.4018L8.79692 13.3959Z" fill="black"/>
<path fill-rule="evenodd" clip-rule="evenodd" d="M7.5 9C7.5 8.17157 8.17157 7.5 9 7.5H9.01C9.83843 7.5 10.51 8.17157 10.51 9C10.51 9.82843 9.83843 10.5 9.01 10.5H9C8.17157 10.5 7.5 9.82843 7.5 9Z" fill="black"/>
<path fill-rule="evenodd" clip-rule="evenodd" d="M13.5 9C13.5 8.17157 14.1716 7.5 15 7.5H15.01C15.8384 7.5 16.51 8.17157 16.51 9C16.51 9.82843 15.8384 10.5 15.01 10.5H15C14.1716 10.5 13.5 9.82843 13.5 9Z" fill="black"/>
</svg>
