<svg width="14" height="14" viewBox="0 0 14 14" fill="none" xmlns="http://www.w3.org/2000/svg">
<path d="M6.99704 13.125C10.3659 13.125 13.125 10.3659 13.125 6.99704C13.125 3.63406 10.3719 0.875 7.00296 0.875C6.63587 0.875 6.42865 1.09407 6.42865 1.44931V3.62814C6.42865 3.9301 6.6418 4.16693 6.94375 4.16693C7.24571 4.16693 7.45886 3.9301 7.45886 3.62814V2.10651C9.96333 2.33742 11.8935 4.43336 11.8935 6.99704C11.8935 9.71466 9.72058 11.8994 6.99704 11.8994C4.27942 11.8994 2.09467 9.71466 2.10059 6.99704C2.10651 5.83066 2.51504 4.74716 3.20185 3.91234C3.42684 3.60446 3.46236 3.27882 3.20777 3.02423C2.95318 2.76964 2.54465 2.79332 2.27821 3.14264C1.40787 4.19653 0.875 5.54054 0.875 6.99704C0.875 10.3659 3.63406 13.125 6.99704 13.125ZM7.95028 7.9562C8.43578 7.44702 8.33513 6.74837 7.75489 6.34576L4.75308 4.28534C4.39784 4.04259 4.04851 4.39192 4.28534 4.74716L6.35168 7.74897C6.74837 8.33513 7.44702 8.4417 7.95028 7.9562Z" fill="white"/>
</svg>
