<svg width="24" height="24" viewBox="0 0 24 24" fill="none" xmlns="http://www.w3.org/2000/svg">
<mask id="path-1-inside-1" fill="white">
<path fill-rule="evenodd" clip-rule="evenodd" d="M1 9.00001C2.65685 9.00001 4 10.3432 4 12C4 13.6569 2.65685 15 1 15L1 19C1 20.1046 1.89543 21 3 21L21 21C22.1046 21 23 20.1046 23 19L23 15C21.3431 15 20 13.6569 20 12C20 10.3432 21.3431 9.00001 23 9.00001L23 5C23 3.89543 22.1046 3 21 3L3 3C1.89543 3 0.999999 3.89543 0.999999 5L1 9.00001Z"/>
</mask>
<path d="M1 9.00001L-1 9.00001L-0.999999 11L1 11L1 9.00001ZM1 15L1 13L-0.999999 13L-1 15L1 15ZM1 19L-1 19L-1 19L1 19ZM3 21L3 23L3 21ZM21 21L21 19L21 21ZM23 15L25 15L25 13L23 13L23 15ZM23 9.00001L23 11L25 11L25 9.00001L23 9.00001ZM0.999999 5L-1 5L0.999999 5ZM6 12C6 9.23859 3.76142 7.00001 1 7.00001L1 11C1.55228 11 2 11.4477 2 12L6 12ZM1 17C3.76142 17 6 14.7614 6 12L2 12C2 12.5523 1.55229 13 1 13L1 17ZM3 19L3 15L-1 15L-1 19L3 19ZM3 19L3 19L-1 19C-1 21.2091 0.79086 23 3 23L3 19ZM21 19L3 19L3 23L21 23L21 19ZM21 19L21 19L21 23C23.2091 23 25 21.2091 25 19L21 19ZM21 15L21 19L25 19L25 15L21 15ZM23 13C22.4477 13 22 12.5523 22 12L18 12C18 14.7614 20.2386 17 23 17L23 13ZM22 12C22 11.4477 22.4477 11 23 11L23 7.00001C20.2386 7.00001 18 9.23859 18 12L22 12ZM21 5L21 9.00001L25 9.00001L25 5L21 5ZM21 5L21 5L25 5C25 2.79086 23.2091 1 21 1L21 5ZM3 5L21 5L21 1L3 1L3 5ZM3 5L3 1C0.79086 1 -1 2.79086 -1 5L3 5ZM3 9.00001L3 5L-1 5L-1 9.00001L3 9.00001Z" fill="black" mask="url(#path-1-inside-1)"/>
<path fill-rule="evenodd" clip-rule="evenodd" d="M12 14.75C12.6904 14.75 13.25 15.3096 13.25 16C13.25 16.6904 12.6904 17.25 12 17.25C11.3096 17.25 10.75 16.6904 10.75 16C10.75 15.3096 11.3096 14.75 12 14.75Z" fill="black"/>
<path fill-rule="evenodd" clip-rule="evenodd" d="M12 10.75C12.6904 10.75 13.25 11.3096 13.25 12C13.25 12.6904 12.6904 13.25 12 13.25C11.3096 13.25 10.75 12.6904 10.75 12C10.75 11.3096 11.3096 10.75 12 10.75Z" fill="black"/>
<path fill-rule="evenodd" clip-rule="evenodd" d="M12 6.75C12.6904 6.75 13.25 7.30964 13.25 8C13.25 8.69036 12.6904 9.25 12 9.25C11.3096 9.25 10.75 8.69036 10.75 8C10.75 7.30964 11.3096 6.75 12 6.75Z" fill="black"/>
</svg>
